<svg width="257" height="102" viewBox="0 0 257 102" fill="none" xmlns="http://www.w3.org/2000/svg">
<g clip-path="url(#clip0_1951_635)">
<path d="M209.818 77.7836C212.765 79.143 214.053 82.6339 212.693 85.5811C211.334 88.5282 207.843 89.8153 204.896 88.4559C201.948 87.0965 200.661 83.6055 202.021 80.6584C203.38 77.7113 206.871 76.4242 209.818 77.7836ZM204.976 82.6688L202.875 81.7001C202.56 82.6952 202.585 83.7669 202.946 84.7462C203.307 85.7255 203.984 86.5569 204.87 87.1094L205.839 85.0081C205.414 84.8122 205.085 84.4557 204.923 84.017C204.761 83.5784 204.781 83.0934 204.976 82.6688ZM211.346 85.6077L209.245 84.6379C209.049 85.0625 208.693 85.3918 208.254 85.5536C207.816 85.7153 207.331 85.6962 206.906 85.5003L205.937 87.6019C206.932 87.9168 208.004 87.8917 208.983 87.5307C209.962 87.1696 210.794 86.4931 211.346 85.6077ZM209.326 78.8508C208.286 78.3711 207.107 78.2874 206.01 78.6154C204.913 78.9434 203.973 79.6606 203.367 80.6323L205.469 81.6016C205.534 81.4601 205.653 81.3503 205.799 81.2964C205.945 81.2424 206.107 81.2488 206.248 81.3141L209.45 82.7909C209.592 82.8562 209.701 82.975 209.755 83.1212C209.809 83.2675 209.803 83.4291 209.738 83.5707L211.839 84.5399C212.185 83.4483 212.12 82.2679 211.658 81.2205C211.195 80.173 210.366 79.3304 209.326 78.8508Z" fill="black"/>
</g>
<g clip-path="url(#clip1_1951_635)">
<path d="M231.489 57.8076C231.058 57.5127 230.762 57.0589 230.666 56.5458C230.57 56.0327 230.682 55.5024 230.976 55.0716C231.271 54.6408 231.725 54.3448 232.238 54.2486C232.751 54.1525 233.282 54.2641 233.712 54.559C234.143 54.8538 234.439 55.3077 234.535 55.8208C234.632 56.3339 234.52 56.8642 234.225 57.295C234.079 57.5083 233.893 57.6907 233.676 57.832C233.46 57.9732 233.217 58.0703 232.963 58.1179C232.709 58.1655 232.448 58.1626 232.195 58.1094C231.942 58.0561 231.702 57.9536 231.489 57.8076ZM235.714 51.6352C234.507 50.8097 233.023 50.4971 231.586 50.7663C230.149 51.0354 228.878 51.8643 228.053 53.0705C225.718 56.4816 226.82 64.6297 226.82 64.6297C226.82 64.6297 234.814 62.7071 237.149 59.296C237.974 58.0898 238.287 56.605 238.018 55.1684C237.749 53.7317 236.92 52.4608 235.714 51.6352Z" fill="black"/>
</g>
<g clip-path="url(#clip2_1951_635)">
<path d="M236.681 97.4059L245.954 91.4943C247.707 92.67 250.052 92.7515 251.988 91.5172C254.026 90.2179 254.913 87.7889 254.439 85.5834L250.057 88.3768L248.108 85.3198L252.509 82.443C250.728 80.9986 248.133 80.8617 246.095 82.161C244.159 83.3953 243.243 85.5556 243.569 87.6407L234.296 93.5522C233.888 93.8121 233.778 94.3127 234.038 94.7203L235.532 97.0639C235.773 97.5549 236.357 97.6842 236.681 97.4059Z" fill="black"/>
</g>
<g clip-path="url(#clip3_1951_635)">
<path d="M6.14861 18.1404L6.37624 14.348L14.8865 12.0677L16.9798 15.2382M16.8558 19.4175C16.5481 19.4999 16.2201 19.4568 15.9442 19.2974C15.6682 19.1381 15.4669 18.8757 15.3844 18.5679C15.3019 18.2601 15.3451 17.9322 15.5044 17.6563C15.6637 17.3803 15.9262 17.179 16.2339 17.0965C16.5417 17.014 16.8697 17.0572 17.1456 17.2165C17.4215 17.3758 17.6229 17.6382 17.7054 17.946C17.7878 18.2538 17.7447 18.5817 17.5854 18.8577C17.426 19.1336 17.1636 19.335 16.8558 19.4175ZM8.3456 21.6978C8.03782 21.7802 7.70988 21.7371 7.43393 21.5778C7.15799 21.4184 6.95663 21.156 6.87416 20.8482C6.79169 20.5405 6.83486 20.2125 6.99418 19.9366C7.1535 19.6606 7.41592 19.4593 7.7237 19.3768C8.03148 19.2943 8.35941 19.3375 8.63536 19.4968C8.91131 19.6561 9.11267 19.9186 9.19513 20.2263C9.2776 20.5341 9.23443 20.8621 9.07511 21.138C8.91579 21.4139 8.65338 21.6153 8.3456 21.6978ZM15.8814 11.3865C15.6065 10.9792 15.0861 10.7704 14.5755 10.9072L6.06529 13.1875C5.55467 13.3244 5.20849 13.7654 5.17399 14.2556L4.80859 19.3287L6.467 25.518C6.52198 25.7231 6.65622 25.8981 6.84018 26.0043C7.02415 26.1105 7.24277 26.1393 7.44796 26.0843L8.22162 25.877C8.4268 25.822 8.60175 25.6878 8.70796 25.5038C8.81417 25.3199 8.84295 25.1012 8.78797 24.8961L8.58067 24.1224L17.8646 21.6348L18.0719 22.4084C18.1269 22.6136 18.2611 22.7886 18.4451 22.8948C18.629 23.001 18.8476 23.0298 19.0528 22.9748L19.8265 22.7675C20.0317 22.7125 20.2066 22.5783 20.3128 22.3943C20.419 22.2104 20.4478 21.9917 20.3928 21.7865L18.7344 15.5973L15.8814 11.3865Z" fill="black"/>
</g>
<g clip-path="url(#clip4_1951_635)">
<path d="M41.4659 34.7219C41.182 33.7594 39.818 33.7594 39.5341 34.7219L39.4653 34.9556C39.4229 35.0997 39.3487 35.2325 39.2483 35.3442C39.1479 35.4559 39.0238 35.5437 38.885 35.6012C38.7462 35.6587 38.5963 35.6844 38.4463 35.6764C38.2963 35.6685 38.15 35.627 38.0181 35.5551L37.805 35.4383C36.9229 34.9584 35.9584 35.9229 36.4389 36.8043L36.5551 37.0181C36.8618 37.5819 36.5709 38.2838 35.9556 38.4653L35.7219 38.5341C34.7594 38.818 34.7594 40.182 35.7219 40.4659L35.9556 40.5347C36.0997 40.5771 36.2325 40.6513 36.3442 40.7517C36.4559 40.8521 36.5437 40.9762 36.6012 41.115C36.6587 41.2538 36.6844 41.4037 36.6764 41.5537C36.6685 41.7037 36.627 41.85 36.5551 41.9819L36.4383 42.195C35.9584 43.0771 36.9229 44.0416 37.8043 43.5611L38.0181 43.4449C38.15 43.373 38.2963 43.3315 38.4463 43.3236C38.5963 43.3156 38.7462 43.3413 38.885 43.3988C39.0238 43.4563 39.1479 43.5441 39.2483 43.6558C39.3487 43.7675 39.4229 43.9003 39.4653 44.0444L39.5341 44.2781C39.818 45.2406 41.182 45.2406 41.4659 44.2781L41.5347 44.0444C41.5771 43.9003 41.6513 43.7675 41.7517 43.6558C41.8521 43.5441 41.9762 43.4563 42.115 43.3988C42.2538 43.3413 42.4037 43.3156 42.5537 43.3236C42.7037 43.3315 42.85 43.373 42.9819 43.4449L43.195 43.5617C44.0771 44.0416 45.0416 43.0771 44.5611 42.1957L44.4449 41.9819C44.373 41.85 44.3315 41.7037 44.3236 41.5537C44.3156 41.4037 44.3413 41.2538 44.3988 41.115C44.4563 40.9762 44.5441 40.8521 44.6558 40.7517C44.7675 40.6513 44.9003 40.5771 45.0444 40.5347L45.2781 40.4659C46.2406 40.182 46.2406 38.818 45.2781 38.5341L45.0444 38.4653C44.9003 38.4229 44.7675 38.3487 44.6558 38.2483C44.5441 38.1479 44.4563 38.0238 44.3988 37.885C44.3413 37.7462 44.3156 37.5963 44.3236 37.4463C44.3315 37.2963 44.373 37.15 44.4449 37.0181L44.5617 36.805C45.0416 35.9229 44.0771 34.9584 43.1957 35.4389L42.9819 35.5551C42.85 35.627 42.7037 35.6685 42.5537 35.6764C42.4037 35.6844 42.2538 35.6587 42.115 35.6012C41.9762 35.5437 41.8521 35.4559 41.7517 35.3442C41.6513 35.2325 41.5771 35.0997 41.5347 34.9556L41.4659 34.7219ZM40.5 41.5144C39.9658 41.5144 39.4534 41.3021 39.0756 40.9244C38.6979 40.5466 38.4856 40.0342 38.4856 39.5C38.4856 38.9658 38.6979 38.4534 39.0756 38.0756C39.4534 37.6979 39.9658 37.4856 40.5 37.4856C41.0341 37.4856 41.5463 37.6978 41.9239 38.0754C42.3015 38.4531 42.5137 38.9652 42.5137 39.4993C42.5137 40.0334 42.3015 40.5456 41.9239 40.9232C41.5463 41.3008 41.0341 41.513 40.5 41.513V41.5144Z" fill="black"/>
</g>
<g clip-path="url(#clip5_1951_635)">
<path d="M69.1375 16.6176L58.3832 22.2781L53.9357 13.8283L64.69 8.16779M59.5553 4.00361L60.3639 5.53993L54.2186 8.77449L53.41 7.23817L51.8737 8.04681L52.6823 9.58313L51.9141 9.98745C51.0615 10.4362 50.7376 11.4798 51.1864 12.3324L56.8469 23.0867C57.0614 23.4942 57.4289 23.7998 57.8687 23.9362C58.3085 24.0727 58.7844 24.0289 59.1919 23.8144L69.9462 18.1539C70.3536 17.9395 70.6592 17.5719 70.7957 17.1322C70.9322 16.6924 70.8883 16.2164 70.6739 15.809L65.0134 5.05466C64.7989 4.6472 64.4314 4.34163 63.9916 4.20516C63.5518 4.06869 63.0759 4.11251 62.6684 4.32697L61.9003 4.73129L61.0916 3.19497M64.771 12.0491L60.9302 14.0707L62.9518 17.9115L66.7926 15.8899L64.771 12.0491Z" fill="black"/>
</g>
<path d="M75.0024 37.6216C69.7882 38.5994 65.3326 42.4659 63.8678 47.9325C61.8332 55.5257 66.3394 63.3306 73.9325 65.3652C79.3994 66.83 84.9747 64.9035 88.4286 60.8765L90.2182 63.9762C85.9049 68.3659 79.4172 70.3714 73.0484 68.6649C63.6328 66.142 58.0452 56.464 60.5681 47.0484C62.2746 40.6798 67.2546 36.0626 73.2127 34.5218L75.0024 37.6216Z" fill="#D42A2A"/>
<path d="M82.1846 34.5681C91.6002 37.091 97.1878 46.769 94.6649 56.1846C94.1859 57.972 93.4472 59.6203 92.5033 61.1025L90.51 57.6501C90.8572 56.9057 91.1452 56.1213 91.3652 55.3004C92.2345 52.0562 91.9056 48.7751 90.6563 45.9202L69.8322 57.9439L68.2383 55.1833L89.0611 43.1603C87.2136 40.6565 84.5397 38.7358 81.3004 37.8678C80.4793 37.6478 79.6557 37.5037 78.8372 37.4323L76.8439 33.9798C78.5998 33.9034 80.3969 34.0891 82.1846 34.5681Z" fill="#969696"/>
<path d="M100.924 47.2405C100.924 45.9315 101.124 44.78 101.523 43.786C101.922 42.785 102.475 41.9485 103.182 41.2765C103.889 40.5975 104.704 40.0865 105.628 39.7435C106.559 39.4005 107.553 39.229 108.61 39.229C109.359 39.229 109.986 39.271 110.49 39.355C111.001 39.432 111.428 39.5195 111.771 39.6175C112.121 39.7085 112.432 39.782 112.705 39.838L112.264 42.694C112.131 42.61 111.928 42.5015 111.655 42.3685C111.389 42.2285 111.025 42.106 110.563 42.001C110.108 41.889 109.538 41.833 108.852 41.833C107.963 41.833 107.175 42.0395 106.489 42.4525C105.803 42.8655 105.264 43.4605 104.872 44.2375C104.48 45.0145 104.284 45.9525 104.284 47.0515C104.284 48.1505 104.463 49.1165 104.82 49.9495C105.184 50.7825 105.716 51.437 106.416 51.913C107.116 52.382 107.97 52.6165 108.978 52.6165C109.447 52.6165 109.923 52.564 110.406 52.459C110.889 52.354 111.319 52.228 111.697 52.081C112.075 51.927 112.355 51.7765 112.537 51.6295V54.349C112.257 54.461 111.935 54.58 111.571 54.706C111.207 54.832 110.787 54.9405 110.311 55.0315C109.842 55.1225 109.296 55.168 108.673 55.168C107.049 55.168 105.66 54.8425 104.505 54.1915C103.35 53.5335 102.464 52.6095 101.848 51.4195C101.232 50.2295 100.924 48.8365 100.924 47.2405ZM116.907 55H113.452L119.101 39.2605H122.65L128.289 55H124.782L121.327 43.954L120.844 42.148L120.351 43.954L116.907 55ZM116.655 51.6925L117.085 49.351H124.246L124.677 51.6925H116.655ZM130.098 55V39.376L131.683 39.397C132.033 39.397 132.39 39.3865 132.754 39.3655C133.118 39.3375 133.51 39.313 133.93 39.292C134.35 39.264 134.823 39.25 135.348 39.25C136.685 39.25 137.77 39.411 138.603 39.733C139.443 40.048 140.055 40.496 140.44 41.077C140.825 41.658 141.018 42.344 141.018 43.135C141.018 43.66 140.93 44.1675 140.755 44.6575C140.587 45.1405 140.328 45.5605 139.978 45.9175C139.628 46.2745 139.187 46.5265 138.655 46.6735C139.271 46.7365 139.824 46.9325 140.314 47.2615C140.804 47.5835 141.193 48.007 141.48 48.532C141.767 49.05 141.91 49.6345 141.91 50.2855C141.91 51.2375 141.718 52.0775 141.333 52.8055C140.955 53.5335 140.3 54.1075 139.369 54.5275C138.445 54.9405 137.157 55.147 135.505 55.147C134.833 55.147 134.14 55.126 133.426 55.084C132.719 55.049 132.159 55.021 131.746 55H130.098ZM133.363 45.8755C133.489 45.8965 133.64 45.914 133.815 45.928C133.99 45.935 134.172 45.942 134.361 45.949C134.557 45.949 134.739 45.949 134.907 45.949C135.082 45.949 135.236 45.949 135.369 45.949C136.153 45.949 136.762 45.7565 137.196 45.3715C137.637 44.9865 137.857 44.3565 137.857 43.4815C137.857 42.7675 137.605 42.2565 137.101 41.9485C136.604 41.6405 135.883 41.4865 134.938 41.4865C134.833 41.4865 134.669 41.4935 134.445 41.5075C134.221 41.5145 134.004 41.5285 133.794 41.5495C133.584 41.5635 133.44 41.588 133.363 41.623V45.8755ZM133.363 52.69C133.461 52.753 133.636 52.802 133.888 52.837C134.147 52.872 134.424 52.8965 134.718 52.9105C135.012 52.9245 135.274 52.9315 135.505 52.9315C136.499 52.9315 137.259 52.7425 137.784 52.3645C138.309 51.9795 138.571 51.3285 138.571 50.4115C138.571 49.6205 138.323 49.0325 137.826 48.6475C137.336 48.2625 136.548 48.07 135.463 48.07C135.309 48.07 135.131 48.07 134.928 48.07C134.732 48.07 134.529 48.0735 134.319 48.0805C134.116 48.0875 133.93 48.0945 133.762 48.1015C133.594 48.1085 133.461 48.1225 133.363 48.1435V52.69Z" fill="#D42A2A"/>
<path d="M147.62 55V41.917H143.179V39.397H155.369V41.917H150.928V55H147.62ZM157.535 55V39.397H167.058V41.875H160.811V45.7915H165.546V48.217H160.811V52.4695H167.72V55H157.535ZM168.948 47.2405C168.948 45.9315 169.148 44.78 169.547 43.786C169.946 42.785 170.499 41.9485 171.206 41.2765C171.913 40.5975 172.728 40.0865 173.652 39.7435C174.583 39.4005 175.577 39.229 176.634 39.229C177.383 39.229 178.01 39.271 178.514 39.355C179.025 39.432 179.452 39.5195 179.795 39.6175C180.145 39.7085 180.456 39.782 180.729 39.838L180.288 42.694C180.155 42.61 179.952 42.5015 179.679 42.3685C179.413 42.2285 179.049 42.106 178.587 42.001C178.132 41.889 177.562 41.833 176.876 41.833C175.987 41.833 175.199 42.0395 174.513 42.4525C173.827 42.8655 173.288 43.4605 172.896 44.2375C172.504 45.0145 172.308 45.9525 172.308 47.0515C172.308 48.1505 172.487 49.1165 172.844 49.9495C173.208 50.7825 173.74 51.437 174.44 51.913C175.14 52.382 175.994 52.6165 177.002 52.6165C177.471 52.6165 177.947 52.564 178.43 52.459C178.913 52.354 179.343 52.228 179.721 52.081C180.099 51.927 180.379 51.7765 180.561 51.6295V54.349C180.281 54.461 179.959 54.58 179.595 54.706C179.231 54.832 178.811 54.9405 178.335 55.0315C177.866 55.1225 177.32 55.168 176.697 55.168C175.073 55.168 173.684 54.8425 172.529 54.1915C171.374 53.5335 170.488 52.6095 169.872 51.4195C169.256 50.2295 168.948 48.8365 168.948 47.2405ZM183.272 55V39.397H186.569V45.9175H192.691V39.397H195.967V55H192.691V48.3325H186.569V55H183.272Z" fill="#979797"/>
<path d="M149.512 68H148.797L148 66.2734H145.484L144.699 68H144L146.48 62.3984H147.047L149.512 68ZM147.777 65.6484L147.035 63.9609C147.02 63.9193 146.992 63.8438 146.953 63.7344C146.917 63.625 146.879 63.513 146.84 63.3984C146.801 63.2812 146.771 63.1901 146.75 63.125C146.706 63.2839 146.66 63.4401 146.613 63.5938C146.566 63.7474 146.525 63.8698 146.488 63.9609L145.738 65.6484H147.777ZM153.07 63.8125H153.758V68H153.195L153.094 67.4453H153.062C152.927 67.6641 152.738 67.8242 152.496 67.9258C152.257 68.0273 152.001 68.0781 151.73 68.0781C151.225 68.0781 150.844 67.957 150.586 67.7148C150.328 67.4727 150.199 67.0859 150.199 66.5547V63.8125H150.898V66.5078C150.898 67.1745 151.21 67.5078 151.832 67.5078C152.298 67.5078 152.621 67.3776 152.801 67.1172C152.98 66.8542 153.07 66.4792 153.07 65.9922V63.8125ZM156.68 67.5156C156.786 67.5156 156.9 67.5078 157.02 67.4922C157.139 67.474 157.232 67.4531 157.297 67.4297V67.9531C157.224 67.987 157.116 68.0156 156.973 68.0391C156.832 68.0651 156.699 68.0781 156.574 68.0781C156.345 68.0781 156.132 68.0404 155.934 67.9648C155.736 67.8893 155.576 67.7578 155.453 67.5703C155.333 67.3828 155.273 67.1198 155.273 66.7812V64.3438H154.629V64.0156L155.273 63.7422L155.559 62.8516H155.961V63.8125H157.266V64.3438H155.961V66.7656C155.961 67.0182 156.029 67.207 156.164 67.332C156.299 67.4544 156.471 67.5156 156.68 67.5156ZM161.938 65.8984C161.938 66.5938 161.757 67.1315 161.395 67.5117C161.035 67.8893 160.548 68.0781 159.934 68.0781C159.553 68.0781 159.214 67.9935 158.914 67.8242C158.617 67.6523 158.383 67.4049 158.211 67.082C158.042 66.7565 157.957 66.362 157.957 65.8984C157.957 65.2057 158.135 64.6719 158.492 64.2969C158.852 63.9219 159.34 63.7344 159.957 63.7344C160.345 63.7344 160.688 63.819 160.984 63.9883C161.284 64.1576 161.517 64.4036 161.684 64.7266C161.853 65.0469 161.938 65.4375 161.938 65.8984ZM158.672 65.8984C158.672 66.3932 158.773 66.7852 158.977 67.0742C159.182 67.3633 159.507 67.5078 159.949 67.5078C160.389 67.5078 160.712 67.3633 160.918 67.0742C161.124 66.7852 161.227 66.3932 161.227 65.8984C161.227 65.401 161.122 65.013 160.914 64.7344C160.708 64.4531 160.384 64.3125 159.941 64.3125C159.499 64.3125 159.176 64.4531 158.973 64.7344C158.772 65.013 158.672 65.401 158.672 65.8984ZM168.836 66.5078C168.836 67.0026 168.659 67.388 168.305 67.6641C167.953 67.9401 167.478 68.0781 166.879 68.0781C166.572 68.0781 166.286 68.0547 166.023 68.0078C165.763 67.9635 165.544 67.8984 165.367 67.8125V67.1406C165.555 67.2214 165.785 67.2969 166.059 67.3672C166.332 67.4349 166.615 67.4688 166.906 67.4688C167.31 67.4688 167.616 67.388 167.824 67.2266C168.033 67.0651 168.137 66.8464 168.137 66.5703C168.137 66.388 168.098 66.2344 168.02 66.1094C167.941 65.9844 167.809 65.8698 167.621 65.7656C167.436 65.6589 167.178 65.5443 166.848 65.4219C166.382 65.25 166.03 65.0391 165.793 64.7891C165.556 64.5391 165.438 64.1979 165.438 63.7656C165.438 63.4714 165.512 63.2188 165.66 63.0078C165.809 62.7943 166.014 62.6302 166.277 62.5156C166.54 62.401 166.845 62.3438 167.191 62.3438C167.493 62.3438 167.77 62.3724 168.02 62.4297C168.272 62.487 168.503 62.5625 168.711 62.6562L168.492 63.2578C168.299 63.1745 168.091 63.1042 167.867 63.0469C167.646 62.9896 167.415 62.9609 167.176 62.9609C166.837 62.9609 166.581 63.0365 166.406 63.1875C166.234 63.3359 166.148 63.5312 166.148 63.7734C166.148 63.9609 166.186 64.1172 166.262 64.2422C166.337 64.3672 166.462 64.4805 166.637 64.582C166.811 64.681 167.047 64.7865 167.344 64.8984C167.667 65.0208 167.939 65.151 168.16 65.2891C168.382 65.4245 168.549 65.5885 168.664 65.7812C168.779 65.974 168.836 66.2161 168.836 66.5078ZM171.551 63.7344C172.082 63.7344 172.5 63.9076 172.805 64.2539C173.109 64.5977 173.262 65.0547 173.262 65.625V66.0391H170.426C170.439 66.5104 170.559 66.8711 170.785 67.1211C171.014 67.3685 171.335 67.4922 171.746 67.4922C172.009 67.4922 172.242 67.4674 172.445 67.418C172.651 67.3685 172.862 67.2969 173.078 67.2031V67.8047C172.865 67.8984 172.655 67.9674 172.449 68.0117C172.243 68.056 171.999 68.0781 171.715 68.0781C171.322 68.0781 170.974 67.9974 170.672 67.8359C170.372 67.6719 170.138 67.431 169.969 67.1133C169.799 66.7956 169.715 66.4036 169.715 65.9375C169.715 65.4792 169.792 65.0859 169.945 64.7578C170.099 64.4271 170.314 64.1745 170.59 64C170.866 63.8229 171.186 63.7344 171.551 63.7344ZM171.543 64.2969C171.22 64.2969 170.965 64.4023 170.777 64.6133C170.59 64.8242 170.478 65.1172 170.441 65.4922H172.547C172.544 65.1354 172.462 64.8477 172.301 64.6289C172.139 64.4076 171.887 64.2969 171.543 64.2969ZM176.367 63.7344C176.443 63.7344 176.525 63.7383 176.613 63.7461C176.702 63.7539 176.78 63.7656 176.848 63.7812L176.766 64.4141C176.701 64.3984 176.626 64.3854 176.543 64.375C176.462 64.3646 176.387 64.3594 176.316 64.3594C176.105 64.3594 175.909 64.418 175.727 64.5352C175.544 64.6523 175.397 64.8164 175.285 65.0273C175.176 65.2383 175.121 65.4844 175.121 65.7656V68H174.434V63.8125H174.996L175.074 64.5781H175.105C175.236 64.3464 175.406 64.1484 175.617 63.9844C175.828 63.8177 176.078 63.7344 176.367 63.7344ZM179.445 68H178.645L176.977 63.8125H177.715L178.66 66.2812C178.707 66.3958 178.755 66.5234 178.805 66.6641C178.854 66.8021 178.898 66.9362 178.938 67.0664C178.979 67.1966 179.008 67.3047 179.023 67.3906H179.059C179.079 67.3047 179.111 67.1966 179.152 67.0664C179.197 66.9336 179.245 66.7982 179.297 66.6602C179.349 66.5195 179.397 66.3932 179.441 66.2812L180.383 63.8125H181.117L179.445 68ZM182.285 62.2422C182.397 62.2422 182.496 62.2773 182.582 62.3477C182.671 62.4154 182.715 62.526 182.715 62.6797C182.715 62.8281 182.671 62.9388 182.582 63.0117C182.496 63.082 182.397 63.1172 182.285 63.1172C182.16 63.1172 182.055 63.082 181.969 63.0117C181.883 62.9388 181.84 62.8281 181.84 62.6797C181.84 62.526 181.883 62.4154 181.969 62.3477C182.055 62.2773 182.16 62.2422 182.285 62.2422ZM181.93 63.8125H182.617V68H181.93V63.8125ZM186.008 68.0781C185.599 68.0781 185.236 68.0026 184.918 67.8516C184.603 67.6979 184.354 67.4635 184.172 67.1484C183.992 66.8307 183.902 66.4245 183.902 65.9297C183.902 65.4141 183.996 64.9948 184.184 64.6719C184.371 64.349 184.626 64.112 184.949 63.9609C185.275 63.8099 185.643 63.7344 186.055 63.7344C186.284 63.7344 186.507 63.7565 186.723 63.8008C186.941 63.8451 187.116 63.8984 187.246 63.9609L187.035 64.5312C186.902 64.4844 186.742 64.4401 186.555 64.3984C186.367 64.3568 186.194 64.3359 186.035 64.3359C185.553 64.3359 185.197 64.4701 184.965 64.7383C184.733 65.0039 184.617 65.3984 184.617 65.9219C184.617 66.4245 184.732 66.8112 184.961 67.082C185.19 67.3503 185.533 67.4844 185.988 67.4844C186.241 67.4844 186.462 67.4609 186.652 67.4141C186.845 67.3646 187.02 67.3073 187.176 67.2422V67.8516C187.025 67.9245 186.857 67.9805 186.672 68.0195C186.49 68.0586 186.268 68.0781 186.008 68.0781ZM189.84 63.7344C190.371 63.7344 190.789 63.9076 191.094 64.2539C191.398 64.5977 191.551 65.0547 191.551 65.625V66.0391H188.715C188.728 66.5104 188.848 66.8711 189.074 67.1211C189.303 67.3685 189.624 67.4922 190.035 67.4922C190.298 67.4922 190.531 67.4674 190.734 67.418C190.94 67.3685 191.151 67.2969 191.367 67.2031V67.8047C191.154 67.8984 190.944 67.9674 190.738 68.0117C190.533 68.056 190.288 68.0781 190.004 68.0781C189.611 68.0781 189.263 67.9974 188.961 67.8359C188.661 67.6719 188.427 67.431 188.258 67.1133C188.089 66.7956 188.004 66.4036 188.004 65.9375C188.004 65.4792 188.081 65.0859 188.234 64.7578C188.388 64.4271 188.603 64.1745 188.879 64C189.155 63.8229 189.475 63.7344 189.84 63.7344ZM189.832 64.2969C189.509 64.2969 189.254 64.4023 189.066 64.6133C188.879 64.8242 188.767 65.1172 188.73 65.4922H190.836C190.833 65.1354 190.751 64.8477 190.59 64.6289C190.428 64.4076 190.176 64.2969 189.832 64.2969ZM195.684 66.8438C195.684 67.25 195.517 67.5573 195.184 67.7656C194.853 67.974 194.413 68.0781 193.863 68.0781C193.54 68.0781 193.264 68.0547 193.035 68.0078C192.809 67.9635 192.611 67.8984 192.441 67.8125V67.1875C192.611 67.2682 192.824 67.3451 193.082 67.418C193.342 67.4883 193.611 67.5234 193.887 67.5234C194.283 67.5234 194.57 67.4674 194.75 67.3555C194.93 67.2435 195.02 67.0938 195.02 66.9062C195.02 66.8021 194.987 66.7083 194.922 66.625C194.859 66.5417 194.745 66.4583 194.578 66.375C194.414 66.2917 194.18 66.1979 193.875 66.0938C193.576 65.9896 193.318 65.8854 193.102 65.7812C192.885 65.6771 192.719 65.5521 192.602 65.4062C192.487 65.2604 192.43 65.0729 192.43 64.8438C192.43 64.487 192.587 64.2135 192.902 64.0234C193.217 63.8307 193.63 63.7344 194.141 63.7344C194.417 63.7344 194.674 63.7604 194.914 63.8125C195.154 63.862 195.378 63.9297 195.586 64.0156L195.344 64.5625C195.154 64.487 194.953 64.4245 194.742 64.375C194.534 64.3229 194.314 64.2969 194.082 64.2969C193.759 64.2969 193.512 64.3424 193.34 64.4336C193.171 64.5247 193.086 64.6484 193.086 64.8047C193.086 64.9219 193.124 65.0208 193.199 65.1016C193.277 65.1823 193.404 65.2604 193.578 65.3359C193.755 65.4115 193.993 65.5 194.293 65.6016C194.587 65.7005 194.837 65.8034 195.043 65.9102C195.251 66.0143 195.41 66.1406 195.52 66.2891C195.629 66.4349 195.684 66.6198 195.684 66.8438Z" fill="#979797"/>
<circle cx="139.5" cy="65.5" r="0.5" fill="#D42A2A"/>
<circle cx="141.5" cy="65.5" r="0.5" fill="#D42A2A"/>
<rect x="102" y="65" width="36" height="1" rx="0.5" fill="#D42A2A"/>
<defs>
<clipPath id="clip0_1951_635">
<rect width="14.1034" height="14.1034" fill="white" transform="translate(203.907 73.7627) rotate(24.762)"/>
</clipPath>
<clipPath id="clip1_1951_635">
<rect width="18.8958" height="18.8958" fill="white" transform="translate(228.806 45) rotate(34.3882)"/>
</clipPath>
<clipPath id="clip2_1951_635">
<rect width="20.508" height="20.508" fill="white" transform="translate(256.725 81.9766) rotate(102.482)"/>
</clipPath>
<clipPath id="clip3_1951_635">
<rect width="19.2228" height="19.2228" fill="white" transform="translate(0 10.667) rotate(-15)"/>
</clipPath>
<clipPath id="clip4_1951_635">
<rect width="11" height="11" fill="white" transform="translate(35 34)"/>
</clipPath>
<clipPath id="clip5_1951_635">
<rect width="20.8337" height="20.8337" fill="white" transform="translate(46.8604 9.7041) rotate(-27.7599)"/>
</clipPath>
</defs>
</svg>
