<svg width="141" height="43" viewBox="0 0 141 43" fill="none" xmlns="http://www.w3.org/2000/svg">
<path d="M21.5 2C24.5906 2 27.5128 2.72013 30.1094 4H139C140.105 4 141 4.89543 141 6V37C141 38.1046 140.105 39 139 39H30.1094C27.5128 40.2799 24.5906 41 21.5 41C10.7304 41 2 32.2696 2 21.5C2 10.7304 10.7304 2 21.5 2Z" fill="#11101D"/>
<path d="M19.0024 7.62158C13.7882 8.59935 9.3326 12.4659 7.86782 17.9325C5.83323 25.5257 10.3394 33.3306 17.9326 35.3652C23.3994 36.83 28.9748 34.9035 32.4286 30.8765L34.2183 33.9762C29.9049 38.3659 23.4172 40.3714 17.0484 38.6649C7.63285 36.142 2.04524 26.464 4.56813 17.0484C6.2746 10.6798 11.2546 6.06256 17.2128 4.52183L19.0024 7.62158Z" fill="#D42A2A"/>
<path d="M26.1846 4.5681C35.6002 7.09099 41.1878 16.769 38.6649 26.1846C38.186 27.972 37.4472 29.6203 36.5033 31.1025L34.51 27.6501C34.8572 26.9057 35.1453 26.1213 35.3652 25.3004C36.2345 22.0562 35.9057 18.7751 34.6563 15.9202L13.8322 27.9439L12.2384 25.1833L33.0611 13.1603C31.2136 10.6565 28.5398 8.73575 25.3005 7.86779C24.4793 7.64777 23.6558 7.50367 22.8372 7.43226L20.844 3.97978C22.5998 3.90335 24.3969 4.08909 26.1846 4.5681Z" fill="#F5F5F5"/>
<path d="M42.924 16.2405C42.924 14.9315 43.1235 13.78 43.5225 12.786C43.9215 11.785 44.4745 10.9485 45.1815 10.2765C45.8885 9.5975 46.704 9.0865 47.628 8.7435C48.559 8.4005 49.553 8.229 50.61 8.229C51.359 8.229 51.9855 8.271 52.4895 8.355C53.0005 8.432 53.4275 8.5195 53.7705 8.6175C54.1205 8.7085 54.432 8.782 54.705 8.838L54.264 11.694C54.131 11.61 53.928 11.5015 53.655 11.3685C53.389 11.2285 53.025 11.106 52.563 11.001C52.108 10.889 51.5375 10.833 50.8515 10.833C49.9625 10.833 49.175 11.0395 48.489 11.4525C47.803 11.8655 47.264 12.4605 46.872 13.2375C46.48 14.0145 46.284 14.9525 46.284 16.0515C46.284 17.1505 46.4625 18.1165 46.8195 18.9495C47.1835 19.7825 47.7155 20.437 48.4155 20.913C49.1155 21.382 49.9695 21.6165 50.9775 21.6165C51.4465 21.6165 51.9225 21.564 52.4055 21.459C52.8885 21.354 53.319 21.228 53.697 21.081C54.075 20.927 54.355 20.7765 54.537 20.6295V23.349C54.257 23.461 53.935 23.58 53.571 23.706C53.207 23.832 52.787 23.9405 52.311 24.0315C51.842 24.1225 51.296 24.168 50.673 24.168C49.049 24.168 47.6595 23.8425 46.5045 23.1915C45.3495 22.5335 44.464 21.6095 43.848 20.4195C43.232 19.2295 42.924 17.8365 42.924 16.2405ZM58.9066 24H55.4521L61.1011 8.2605H64.6501L70.2886 24H66.7816L63.3271 12.954L62.8441 11.148L62.3506 12.954L58.9066 24ZM58.6546 20.6925L59.0851 18.351H66.2461L66.6766 20.6925H58.6546ZM72.0978 24V8.376L73.6833 8.397C74.0333 8.397 74.3903 8.3865 74.7543 8.3655C75.1183 8.3375 75.5103 8.313 75.9303 8.292C76.3503 8.264 76.8228 8.25 77.3478 8.25C78.6848 8.25 79.7698 8.411 80.6028 8.733C81.4428 9.048 82.0553 9.496 82.4403 10.077C82.8253 10.658 83.0178 11.344 83.0178 12.135C83.0178 12.66 82.9303 13.1675 82.7553 13.6575C82.5873 14.1405 82.3283 14.5605 81.9783 14.9175C81.6283 15.2745 81.1873 15.5265 80.6553 15.6735C81.2713 15.7365 81.8243 15.9325 82.3143 16.2615C82.8043 16.5835 83.1928 17.007 83.4798 17.532C83.7668 18.05 83.9103 18.6345 83.9103 19.2855C83.9103 20.2375 83.7178 21.0775 83.3328 21.8055C82.9548 22.5335 82.3003 23.1075 81.3693 23.5275C80.4453 23.9405 79.1573 24.147 77.5053 24.147C76.8333 24.147 76.1403 24.126 75.4263 24.084C74.7193 24.049 74.1593 24.021 73.7463 24H72.0978ZM75.3633 14.8755C75.4893 14.8965 75.6398 14.914 75.8148 14.928C75.9898 14.935 76.1718 14.942 76.3608 14.949C76.5568 14.949 76.7388 14.949 76.9068 14.949C77.0818 14.949 77.2358 14.949 77.3688 14.949C78.1528 14.949 78.7618 14.7565 79.1958 14.3715C79.6368 13.9865 79.8573 13.3565 79.8573 12.4815C79.8573 11.7675 79.6053 11.2565 79.1013 10.9485C78.6043 10.6405 77.8833 10.4865 76.9383 10.4865C76.8333 10.4865 76.6688 10.4935 76.4448 10.5075C76.2208 10.5145 76.0038 10.5285 75.7938 10.5495C75.5838 10.5635 75.4403 10.588 75.3633 10.623V14.8755ZM75.3633 21.69C75.4613 21.753 75.6363 21.802 75.8883 21.837C76.1473 21.872 76.4238 21.8965 76.7178 21.9105C77.0118 21.9245 77.2743 21.9315 77.5053 21.9315C78.4993 21.9315 79.2588 21.7425 79.7838 21.3645C80.3088 20.9795 80.5713 20.3285 80.5713 19.4115C80.5713 18.6205 80.3228 18.0325 79.8258 17.6475C79.3358 17.2625 78.5483 17.07 77.4633 17.07C77.3093 17.07 77.1308 17.07 76.9278 17.07C76.7318 17.07 76.5288 17.0735 76.3188 17.0805C76.1158 17.0875 75.9303 17.0945 75.7623 17.1015C75.5943 17.1085 75.4613 17.1225 75.3633 17.1435V21.69Z" fill="#D42A2A"/>
<path d="M89.6203 24V10.917H85.1788V8.397H97.3693V10.917H92.9278V24H89.6203ZM99.5348 24V8.397H109.058V10.875H102.811V14.7915H107.546V17.217H102.811V21.4695H109.72V24H99.5348ZM110.948 16.2405C110.948 14.9315 111.148 13.78 111.547 12.786C111.946 11.785 112.499 10.9485 113.206 10.2765C113.913 9.5975 114.728 9.0865 115.652 8.7435C116.583 8.4005 117.577 8.229 118.634 8.229C119.383 8.229 120.01 8.271 120.514 8.355C121.025 8.432 121.452 8.5195 121.795 8.6175C122.145 8.7085 122.456 8.782 122.729 8.838L122.288 11.694C122.155 11.61 121.952 11.5015 121.679 11.3685C121.413 11.2285 121.049 11.106 120.587 11.001C120.132 10.889 119.562 10.833 118.876 10.833C117.987 10.833 117.199 11.0395 116.513 11.4525C115.827 11.8655 115.288 12.4605 114.896 13.2375C114.504 14.0145 114.308 14.9525 114.308 16.0515C114.308 17.1505 114.487 18.1165 114.844 18.9495C115.208 19.7825 115.74 20.437 116.44 20.913C117.14 21.382 117.994 21.6165 119.002 21.6165C119.471 21.6165 119.947 21.564 120.43 21.459C120.913 21.354 121.343 21.228 121.721 21.081C122.099 20.927 122.379 20.7765 122.561 20.6295V23.349C122.281 23.461 121.959 23.58 121.595 23.706C121.231 23.832 120.811 23.9405 120.335 24.0315C119.866 24.1225 119.32 24.168 118.697 24.168C117.073 24.168 115.684 23.8425 114.529 23.1915C113.374 22.5335 112.488 21.6095 111.872 20.4195C111.256 19.2295 110.948 17.8365 110.948 16.2405ZM125.272 24V8.397H128.569V14.9175H134.691V8.397H137.967V24H134.691V17.3325H128.569V24H125.272Z" fill="#F5F5F5"/>
<path d="M91.5117 37H90.7969L90 35.2734H87.4844L86.6992 37H86L88.4805 31.3984H89.0469L91.5117 37ZM89.7773 34.6484L89.0352 32.9609C89.0195 32.9193 88.9922 32.8438 88.9531 32.7344C88.9167 32.625 88.8789 32.513 88.8398 32.3984C88.8008 32.2812 88.7708 32.1901 88.75 32.125C88.7057 32.2839 88.6602 32.4401 88.6133 32.5938C88.5664 32.7474 88.5247 32.8698 88.4883 32.9609L87.7383 34.6484H89.7773ZM95.0703 32.8125H95.7578V37H95.1953L95.0938 36.4453H95.0625C94.9271 36.6641 94.7383 36.8242 94.4961 36.9258C94.2565 37.0273 94.0013 37.0781 93.7305 37.0781C93.2253 37.0781 92.8438 36.957 92.5859 36.7148C92.3281 36.4727 92.1992 36.0859 92.1992 35.5547V32.8125H92.8984V35.5078C92.8984 36.1745 93.2096 36.5078 93.832 36.5078C94.2982 36.5078 94.6211 36.3776 94.8008 36.1172C94.9805 35.8542 95.0703 35.4792 95.0703 34.9922V32.8125ZM98.6797 36.5156C98.7865 36.5156 98.8997 36.5078 99.0195 36.4922C99.1393 36.474 99.2318 36.4531 99.2969 36.4297V36.9531C99.224 36.987 99.1159 37.0156 98.9727 37.0391C98.832 37.0651 98.6992 37.0781 98.5742 37.0781C98.3451 37.0781 98.1315 37.0404 97.9336 36.9648C97.7357 36.8893 97.5755 36.7578 97.4531 36.5703C97.3333 36.3828 97.2734 36.1198 97.2734 35.7812V33.3438H96.6289V33.0156L97.2734 32.7422L97.5586 31.8516H97.9609V32.8125H99.2656V33.3438H97.9609V35.7656C97.9609 36.0182 98.0286 36.207 98.1641 36.332C98.2995 36.4544 98.4714 36.5156 98.6797 36.5156ZM103.938 34.8984C103.938 35.5938 103.757 36.1315 103.395 36.5117C103.035 36.8893 102.548 37.0781 101.934 37.0781C101.553 37.0781 101.214 36.9935 100.914 36.8242C100.617 36.6523 100.383 36.4049 100.211 36.082C100.042 35.7565 99.957 35.362 99.957 34.8984C99.957 34.2057 100.135 33.6719 100.492 33.2969C100.852 32.9219 101.34 32.7344 101.957 32.7344C102.345 32.7344 102.688 32.819 102.984 32.9883C103.284 33.1576 103.517 33.4036 103.684 33.7266C103.853 34.0469 103.938 34.4375 103.938 34.8984ZM100.672 34.8984C100.672 35.3932 100.773 35.7852 100.977 36.0742C101.182 36.3633 101.507 36.5078 101.949 36.5078C102.389 36.5078 102.712 36.3633 102.918 36.0742C103.124 35.7852 103.227 35.3932 103.227 34.8984C103.227 34.401 103.122 34.013 102.914 33.7344C102.708 33.4531 102.384 33.3125 101.941 33.3125C101.499 33.3125 101.176 33.4531 100.973 33.7344C100.772 34.013 100.672 34.401 100.672 34.8984ZM110.836 35.5078C110.836 36.0026 110.659 36.388 110.305 36.6641C109.953 36.9401 109.478 37.0781 108.879 37.0781C108.572 37.0781 108.286 37.0547 108.023 37.0078C107.763 36.9635 107.544 36.8984 107.367 36.8125V36.1406C107.555 36.2214 107.785 36.2969 108.059 36.3672C108.332 36.4349 108.615 36.4688 108.906 36.4688C109.31 36.4688 109.616 36.388 109.824 36.2266C110.033 36.0651 110.137 35.8464 110.137 35.5703C110.137 35.388 110.098 35.2344 110.02 35.1094C109.941 34.9844 109.809 34.8698 109.621 34.7656C109.436 34.6589 109.178 34.5443 108.848 34.4219C108.382 34.25 108.03 34.0391 107.793 33.7891C107.556 33.5391 107.438 33.1979 107.438 32.7656C107.438 32.4714 107.512 32.2188 107.66 32.0078C107.809 31.7943 108.014 31.6302 108.277 31.5156C108.54 31.401 108.845 31.3438 109.191 31.3438C109.493 31.3438 109.77 31.3724 110.02 31.4297C110.272 31.487 110.503 31.5625 110.711 31.6562L110.492 32.2578C110.299 32.1745 110.091 32.1042 109.867 32.0469C109.646 31.9896 109.415 31.9609 109.176 31.9609C108.837 31.9609 108.581 32.0365 108.406 32.1875C108.234 32.3359 108.148 32.5312 108.148 32.7734C108.148 32.9609 108.186 33.1172 108.262 33.2422C108.337 33.3672 108.462 33.4805 108.637 33.582C108.811 33.681 109.047 33.7865 109.344 33.8984C109.667 34.0208 109.939 34.151 110.16 34.2891C110.382 34.4245 110.549 34.5885 110.664 34.7812C110.779 34.974 110.836 35.2161 110.836 35.5078ZM113.551 32.7344C114.082 32.7344 114.5 32.9076 114.805 33.2539C115.109 33.5977 115.262 34.0547 115.262 34.625V35.0391H112.426C112.439 35.5104 112.559 35.8711 112.785 36.1211C113.014 36.3685 113.335 36.4922 113.746 36.4922C114.009 36.4922 114.242 36.4674 114.445 36.418C114.651 36.3685 114.862 36.2969 115.078 36.2031V36.8047C114.865 36.8984 114.655 36.9674 114.449 37.0117C114.243 37.056 113.999 37.0781 113.715 37.0781C113.322 37.0781 112.974 36.9974 112.672 36.8359C112.372 36.6719 112.138 36.431 111.969 36.1133C111.799 35.7956 111.715 35.4036 111.715 34.9375C111.715 34.4792 111.792 34.0859 111.945 33.7578C112.099 33.4271 112.314 33.1745 112.59 33C112.866 32.8229 113.186 32.7344 113.551 32.7344ZM113.543 33.2969C113.22 33.2969 112.965 33.4023 112.777 33.6133C112.59 33.8242 112.478 34.1172 112.441 34.4922H114.547C114.544 34.1354 114.462 33.8477 114.301 33.6289C114.139 33.4076 113.887 33.2969 113.543 33.2969ZM118.367 32.7344C118.443 32.7344 118.525 32.7383 118.613 32.7461C118.702 32.7539 118.78 32.7656 118.848 32.7812L118.766 33.4141C118.701 33.3984 118.626 33.3854 118.543 33.375C118.462 33.3646 118.387 33.3594 118.316 33.3594C118.105 33.3594 117.909 33.418 117.727 33.5352C117.544 33.6523 117.397 33.8164 117.285 34.0273C117.176 34.2383 117.121 34.4844 117.121 34.7656V37H116.434V32.8125H116.996L117.074 33.5781H117.105C117.236 33.3464 117.406 33.1484 117.617 32.9844C117.828 32.8177 118.078 32.7344 118.367 32.7344ZM121.445 37H120.645L118.977 32.8125H119.715L120.66 35.2812C120.707 35.3958 120.755 35.5234 120.805 35.6641C120.854 35.8021 120.898 35.9362 120.938 36.0664C120.979 36.1966 121.008 36.3047 121.023 36.3906H121.059C121.079 36.3047 121.111 36.1966 121.152 36.0664C121.197 35.9336 121.245 35.7982 121.297 35.6602C121.349 35.5195 121.397 35.3932 121.441 35.2812L122.383 32.8125H123.117L121.445 37ZM124.285 31.2422C124.397 31.2422 124.496 31.2773 124.582 31.3477C124.671 31.4154 124.715 31.526 124.715 31.6797C124.715 31.8281 124.671 31.9388 124.582 32.0117C124.496 32.082 124.397 32.1172 124.285 32.1172C124.16 32.1172 124.055 32.082 123.969 32.0117C123.883 31.9388 123.84 31.8281 123.84 31.6797C123.84 31.526 123.883 31.4154 123.969 31.3477C124.055 31.2773 124.16 31.2422 124.285 31.2422ZM123.93 32.8125H124.617V37H123.93V32.8125ZM128.008 37.0781C127.599 37.0781 127.236 37.0026 126.918 36.8516C126.603 36.6979 126.354 36.4635 126.172 36.1484C125.992 35.8307 125.902 35.4245 125.902 34.9297C125.902 34.4141 125.996 33.9948 126.184 33.6719C126.371 33.349 126.626 33.112 126.949 32.9609C127.275 32.8099 127.643 32.7344 128.055 32.7344C128.284 32.7344 128.507 32.7565 128.723 32.8008C128.941 32.8451 129.116 32.8984 129.246 32.9609L129.035 33.5312C128.902 33.4844 128.742 33.4401 128.555 33.3984C128.367 33.3568 128.194 33.3359 128.035 33.3359C127.553 33.3359 127.197 33.4701 126.965 33.7383C126.733 34.0039 126.617 34.3984 126.617 34.9219C126.617 35.4245 126.732 35.8112 126.961 36.082C127.19 36.3503 127.533 36.4844 127.988 36.4844C128.241 36.4844 128.462 36.4609 128.652 36.4141C128.845 36.3646 129.02 36.3073 129.176 36.2422V36.8516C129.025 36.9245 128.857 36.9805 128.672 37.0195C128.49 37.0586 128.268 37.0781 128.008 37.0781ZM131.84 32.7344C132.371 32.7344 132.789 32.9076 133.094 33.2539C133.398 33.5977 133.551 34.0547 133.551 34.625V35.0391H130.715C130.728 35.5104 130.848 35.8711 131.074 36.1211C131.303 36.3685 131.624 36.4922 132.035 36.4922C132.298 36.4922 132.531 36.4674 132.734 36.418C132.94 36.3685 133.151 36.2969 133.367 36.2031V36.8047C133.154 36.8984 132.944 36.9674 132.738 37.0117C132.533 37.056 132.288 37.0781 132.004 37.0781C131.611 37.0781 131.263 36.9974 130.961 36.8359C130.661 36.6719 130.427 36.431 130.258 36.1133C130.089 35.7956 130.004 35.4036 130.004 34.9375C130.004 34.4792 130.081 34.0859 130.234 33.7578C130.388 33.4271 130.603 33.1745 130.879 33C131.155 32.8229 131.475 32.7344 131.84 32.7344ZM131.832 33.2969C131.509 33.2969 131.254 33.4023 131.066 33.6133C130.879 33.8242 130.767 34.1172 130.73 34.4922H132.836C132.833 34.1354 132.751 33.8477 132.59 33.6289C132.428 33.4076 132.176 33.2969 131.832 33.2969ZM137.684 35.8438C137.684 36.25 137.517 36.5573 137.184 36.7656C136.853 36.974 136.413 37.0781 135.863 37.0781C135.54 37.0781 135.264 37.0547 135.035 37.0078C134.809 36.9635 134.611 36.8984 134.441 36.8125V36.1875C134.611 36.2682 134.824 36.3451 135.082 36.418C135.342 36.4883 135.611 36.5234 135.887 36.5234C136.283 36.5234 136.57 36.4674 136.75 36.3555C136.93 36.2435 137.02 36.0938 137.02 35.9062C137.02 35.8021 136.987 35.7083 136.922 35.625C136.859 35.5417 136.745 35.4583 136.578 35.375C136.414 35.2917 136.18 35.1979 135.875 35.0938C135.576 34.9896 135.318 34.8854 135.102 34.7812C134.885 34.6771 134.719 34.5521 134.602 34.4062C134.487 34.2604 134.43 34.0729 134.43 33.8438C134.43 33.487 134.587 33.2135 134.902 33.0234C135.217 32.8307 135.63 32.7344 136.141 32.7344C136.417 32.7344 136.674 32.7604 136.914 32.8125C137.154 32.862 137.378 32.9297 137.586 33.0156L137.344 33.5625C137.154 33.487 136.953 33.4245 136.742 33.375C136.534 33.3229 136.314 33.2969 136.082 33.2969C135.759 33.2969 135.512 33.3424 135.34 33.4336C135.171 33.5247 135.086 33.6484 135.086 33.8047C135.086 33.9219 135.124 34.0208 135.199 34.1016C135.277 34.1823 135.404 34.2604 135.578 34.3359C135.755 34.4115 135.993 34.5 136.293 34.6016C136.587 34.7005 136.837 34.8034 137.043 34.9102C137.251 35.0143 137.41 35.1406 137.52 35.2891C137.629 35.4349 137.684 35.6198 137.684 35.8438Z" fill="#F5F5F5"/>
<circle cx="81.5" cy="34.5" r="0.5" fill="#D42A2A"/>
<circle cx="83.5" cy="34.5" r="0.5" fill="#D42A2A"/>
<rect x="44" y="34" width="36" height="1" rx="0.5" fill="#D42A2A"/>
</svg>
