<svg width="98" height="34" viewBox="0 0 98 34" fill="none" xmlns="http://www.w3.org/2000/svg">
<path d="M0.924 12.2405C0.924 10.9315 1.1235 9.78 1.5225 8.786C1.9215 7.785 2.4745 6.9485 3.1815 6.2765C3.8885 5.5975 4.704 5.0865 5.628 4.7435C6.559 4.4005 7.553 4.229 8.61 4.229C9.359 4.229 9.9855 4.271 10.4895 4.355C11.0005 4.432 11.4275 4.5195 11.7705 4.6175C12.1205 4.7085 12.432 4.782 12.705 4.838L12.264 7.694C12.131 7.61 11.928 7.5015 11.655 7.3685C11.389 7.2285 11.025 7.106 10.563 7.001C10.108 6.889 9.5375 6.833 8.8515 6.833C7.9625 6.833 7.175 7.0395 6.489 7.4525C5.803 7.8655 5.264 8.4605 4.872 9.2375C4.48 10.0145 4.284 10.9525 4.284 12.0515C4.284 13.1505 4.4625 14.1165 4.8195 14.9495C5.1835 15.7825 5.7155 16.437 6.4155 16.913C7.1155 17.382 7.9695 17.6165 8.9775 17.6165C9.4465 17.6165 9.9225 17.564 10.4055 17.459C10.8885 17.354 11.319 17.228 11.697 17.081C12.075 16.927 12.355 16.7765 12.537 16.6295V19.349C12.257 19.461 11.935 19.58 11.571 19.706C11.207 19.832 10.787 19.9405 10.311 20.0315C9.842 20.1225 9.296 20.168 8.673 20.168C7.049 20.168 5.6595 19.8425 4.5045 19.1915C3.3495 18.5335 2.464 17.6095 1.848 16.4195C1.232 15.2295 0.924 13.8365 0.924 12.2405ZM16.9066 20H13.4521L19.1011 4.2605H22.6501L28.2886 20H24.7816L21.3271 8.954L20.8441 7.148L20.3506 8.954L16.9066 20ZM16.6546 16.6925L17.0851 14.351H24.2461L24.6766 16.6925H16.6546ZM30.0978 20V4.376L31.6833 4.397C32.0333 4.397 32.3903 4.3865 32.7543 4.3655C33.1183 4.3375 33.5103 4.313 33.9303 4.292C34.3503 4.264 34.8228 4.25 35.3478 4.25C36.6848 4.25 37.7698 4.411 38.6028 4.733C39.4428 5.048 40.0553 5.496 40.4403 6.077C40.8253 6.658 41.0178 7.344 41.0178 8.135C41.0178 8.66 40.9303 9.1675 40.7553 9.6575C40.5873 10.1405 40.3283 10.5605 39.9783 10.9175C39.6283 11.2745 39.1873 11.5265 38.6553 11.6735C39.2713 11.7365 39.8243 11.9325 40.3143 12.2615C40.8043 12.5835 41.1928 13.007 41.4798 13.532C41.7668 14.05 41.9103 14.6345 41.9103 15.2855C41.9103 16.2375 41.7178 17.0775 41.3328 17.8055C40.9548 18.5335 40.3003 19.1075 39.3693 19.5275C38.4453 19.9405 37.1573 20.147 35.5053 20.147C34.8333 20.147 34.1403 20.126 33.4263 20.084C32.7193 20.049 32.1593 20.021 31.7463 20H30.0978ZM33.3633 10.8755C33.4893 10.8965 33.6398 10.914 33.8148 10.928C33.9898 10.935 34.1718 10.942 34.3608 10.949C34.5568 10.949 34.7388 10.949 34.9068 10.949C35.0818 10.949 35.2358 10.949 35.3688 10.949C36.1528 10.949 36.7618 10.7565 37.1958 10.3715C37.6368 9.9865 37.8573 9.3565 37.8573 8.4815C37.8573 7.7675 37.6053 7.2565 37.1013 6.9485C36.6043 6.6405 35.8833 6.4865 34.9383 6.4865C34.8333 6.4865 34.6688 6.4935 34.4448 6.5075C34.2208 6.5145 34.0038 6.5285 33.7938 6.5495C33.5838 6.5635 33.4403 6.588 33.3633 6.623V10.8755ZM33.3633 17.69C33.4613 17.753 33.6363 17.802 33.8883 17.837C34.1473 17.872 34.4238 17.8965 34.7178 17.9105C35.0118 17.9245 35.2743 17.9315 35.5053 17.9315C36.4993 17.9315 37.2588 17.7425 37.7838 17.3645C38.3088 16.9795 38.5713 16.3285 38.5713 15.4115C38.5713 14.6205 38.3228 14.0325 37.8258 13.6475C37.3358 13.2625 36.5483 13.07 35.4633 13.07C35.3093 13.07 35.1308 13.07 34.9278 13.07C34.7318 13.07 34.5288 13.0735 34.3188 13.0805C34.1158 13.0875 33.9303 13.0945 33.7623 13.1015C33.5943 13.1085 33.4613 13.1225 33.3633 13.1435V17.69Z" fill="#D42A2A"/>
<path d="M47.6203 20V6.917H43.1788V4.397H55.3693V6.917H50.9278V20H47.6203ZM57.5348 20V4.397H67.0583V6.875H60.8108V10.7915H65.5463V13.217H60.8108V17.4695H67.7198V20H57.5348ZM68.9484 12.2405C68.9484 10.9315 69.1479 9.78 69.5469 8.786C69.9459 7.785 70.4989 6.9485 71.2059 6.2765C71.9129 5.5975 72.7284 5.0865 73.6524 4.7435C74.5834 4.4005 75.5774 4.229 76.6344 4.229C77.3834 4.229 78.0099 4.271 78.5139 4.355C79.0249 4.432 79.4519 4.5195 79.7949 4.6175C80.1449 4.7085 80.4564 4.782 80.7294 4.838L80.2884 7.694C80.1554 7.61 79.9524 7.5015 79.6794 7.3685C79.4134 7.2285 79.0494 7.106 78.5874 7.001C78.1324 6.889 77.5619 6.833 76.8759 6.833C75.9869 6.833 75.1994 7.0395 74.5134 7.4525C73.8274 7.8655 73.2884 8.4605 72.8964 9.2375C72.5044 10.0145 72.3084 10.9525 72.3084 12.0515C72.3084 13.1505 72.4869 14.1165 72.8439 14.9495C73.2079 15.7825 73.7399 16.437 74.4399 16.913C75.1399 17.382 75.9939 17.6165 77.0019 17.6165C77.4709 17.6165 77.9469 17.564 78.4299 17.459C78.9129 17.354 79.3434 17.228 79.7214 17.081C80.0994 16.927 80.3794 16.7765 80.5614 16.6295V19.349C80.2814 19.461 79.9594 19.58 79.5954 19.706C79.2314 19.832 78.8114 19.9405 78.3354 20.0315C77.8664 20.1225 77.3204 20.168 76.6974 20.168C75.0734 20.168 73.6839 19.8425 72.5289 19.1915C71.3739 18.5335 70.4884 17.6095 69.8724 16.4195C69.2564 15.2295 68.9484 13.8365 68.9484 12.2405ZM83.2721 20V4.397H86.5691V10.9175H92.6906V4.397H95.9666V20H92.6906V13.3325H86.5691V20H83.2721Z" fill="#F5F5F5"/>
<path d="M49.5117 33H48.7969L48 31.2734H45.4844L44.6992 33H44L46.4805 27.3984H47.0469L49.5117 33ZM47.7773 30.6484L47.0352 28.9609C47.0195 28.9193 46.9922 28.8438 46.9531 28.7344C46.9167 28.625 46.8789 28.513 46.8398 28.3984C46.8008 28.2812 46.7708 28.1901 46.75 28.125C46.7057 28.2839 46.6602 28.4401 46.6133 28.5938C46.5664 28.7474 46.5247 28.8698 46.4883 28.9609L45.7383 30.6484H47.7773ZM53.0703 28.8125H53.7578V33H53.1953L53.0938 32.4453H53.0625C52.9271 32.6641 52.7383 32.8242 52.4961 32.9258C52.2565 33.0273 52.0013 33.0781 51.7305 33.0781C51.2253 33.0781 50.8438 32.957 50.5859 32.7148C50.3281 32.4727 50.1992 32.0859 50.1992 31.5547V28.8125H50.8984V31.5078C50.8984 32.1745 51.2096 32.5078 51.832 32.5078C52.2982 32.5078 52.6211 32.3776 52.8008 32.1172C52.9805 31.8542 53.0703 31.4792 53.0703 30.9922V28.8125ZM56.6797 32.5156C56.7865 32.5156 56.8997 32.5078 57.0195 32.4922C57.1393 32.474 57.2318 32.4531 57.2969 32.4297V32.9531C57.224 32.987 57.1159 33.0156 56.9727 33.0391C56.832 33.0651 56.6992 33.0781 56.5742 33.0781C56.3451 33.0781 56.1315 33.0404 55.9336 32.9648C55.7357 32.8893 55.5755 32.7578 55.4531 32.5703C55.3333 32.3828 55.2734 32.1198 55.2734 31.7812V29.3438H54.6289V29.0156L55.2734 28.7422L55.5586 27.8516H55.9609V28.8125H57.2656V29.3438H55.9609V31.7656C55.9609 32.0182 56.0286 32.207 56.1641 32.332C56.2995 32.4544 56.4714 32.5156 56.6797 32.5156ZM61.9375 30.8984C61.9375 31.5938 61.7565 32.1315 61.3945 32.5117C61.0352 32.8893 60.5482 33.0781 59.9336 33.0781C59.5534 33.0781 59.2135 32.9935 58.9141 32.8242C58.6172 32.6523 58.3828 32.4049 58.2109 32.082C58.0417 31.7565 57.957 31.362 57.957 30.8984C57.957 30.2057 58.1354 29.6719 58.4922 29.2969C58.8516 28.9219 59.3398 28.7344 59.957 28.7344C60.3451 28.7344 60.6875 28.819 60.9844 28.9883C61.2839 29.1576 61.5169 29.4036 61.6836 29.7266C61.8529 30.0469 61.9375 30.4375 61.9375 30.8984ZM58.6719 30.8984C58.6719 31.3932 58.7734 31.7852 58.9766 32.0742C59.1823 32.3633 59.5065 32.5078 59.9492 32.5078C60.3893 32.5078 60.7122 32.3633 60.918 32.0742C61.1237 31.7852 61.2266 31.3932 61.2266 30.8984C61.2266 30.401 61.1224 30.013 60.9141 29.7344C60.7083 29.4531 60.3841 29.3125 59.9414 29.3125C59.4987 29.3125 59.1758 29.4531 58.9727 29.7344C58.7721 30.013 58.6719 30.401 58.6719 30.8984ZM68.8359 31.5078C68.8359 32.0026 68.6589 32.388 68.3047 32.6641C67.9531 32.9401 67.4779 33.0781 66.8789 33.0781C66.5716 33.0781 66.2865 33.0547 66.0234 33.0078C65.763 32.9635 65.5443 32.8984 65.3672 32.8125V32.1406C65.5547 32.2214 65.7852 32.2969 66.0586 32.3672C66.332 32.4349 66.6146 32.4688 66.9062 32.4688C67.3099 32.4688 67.6159 32.388 67.8242 32.2266C68.0326 32.0651 68.1367 31.8464 68.1367 31.5703C68.1367 31.388 68.0977 31.2344 68.0195 31.1094C67.9414 30.9844 67.8086 30.8698 67.6211 30.7656C67.4362 30.6589 67.1784 30.5443 66.8477 30.4219C66.3815 30.25 66.0299 30.0391 65.793 29.7891C65.556 29.5391 65.4375 29.1979 65.4375 28.7656C65.4375 28.4714 65.5117 28.2188 65.6602 28.0078C65.8086 27.7943 66.0143 27.6302 66.2773 27.5156C66.5404 27.401 66.8451 27.3438 67.1914 27.3438C67.4935 27.3438 67.7695 27.3724 68.0195 27.4297C68.2721 27.487 68.5026 27.5625 68.7109 27.6562L68.4922 28.2578C68.2995 28.1745 68.0911 28.1042 67.8672 28.0469C67.6458 27.9896 67.4154 27.9609 67.1758 27.9609C66.8372 27.9609 66.5807 28.0365 66.4062 28.1875C66.2344 28.3359 66.1484 28.5312 66.1484 28.7734C66.1484 28.9609 66.1862 29.1172 66.2617 29.2422C66.3372 29.3672 66.4622 29.4805 66.6367 29.582C66.8112 29.681 67.0469 29.7865 67.3438 29.8984C67.6667 30.0208 67.9388 30.151 68.1602 30.2891C68.3815 30.4245 68.5495 30.5885 68.6641 30.7812C68.7786 30.974 68.8359 31.2161 68.8359 31.5078ZM71.5508 28.7344C72.082 28.7344 72.5 28.9076 72.8047 29.2539C73.1094 29.5977 73.2617 30.0547 73.2617 30.625V31.0391H70.4258C70.4388 31.5104 70.5586 31.8711 70.7852 32.1211C71.0143 32.3685 71.3346 32.4922 71.7461 32.4922C72.0091 32.4922 72.2422 32.4674 72.4453 32.418C72.651 32.3685 72.862 32.2969 73.0781 32.2031V32.8047C72.8646 32.8984 72.6549 32.9674 72.4492 33.0117C72.2435 33.056 71.9987 33.0781 71.7148 33.0781C71.3216 33.0781 70.974 32.9974 70.6719 32.8359C70.3724 32.6719 70.138 32.431 69.9688 32.1133C69.7995 31.7956 69.7148 31.4036 69.7148 30.9375C69.7148 30.4792 69.7917 30.0859 69.9453 29.7578C70.099 29.4271 70.3138 29.1745 70.5898 29C70.8659 28.8229 71.1862 28.7344 71.5508 28.7344ZM71.543 29.2969C71.2201 29.2969 70.9648 29.4023 70.7773 29.6133C70.5898 29.8242 70.4779 30.1172 70.4414 30.4922H72.5469C72.5443 30.1354 72.4622 29.8477 72.3008 29.6289C72.1393 29.4076 71.8867 29.2969 71.543 29.2969ZM76.3672 28.7344C76.4427 28.7344 76.5247 28.7383 76.6133 28.7461C76.7018 28.7539 76.7799 28.7656 76.8477 28.7812L76.7656 29.4141C76.7005 29.3984 76.6263 29.3854 76.543 29.375C76.4622 29.3646 76.3867 29.3594 76.3164 29.3594C76.1055 29.3594 75.9089 29.418 75.7266 29.5352C75.5443 29.6523 75.3971 29.8164 75.2852 30.0273C75.1758 30.2383 75.1211 30.4844 75.1211 30.7656V33H74.4336V28.8125H74.9961L75.0742 29.5781H75.1055C75.2357 29.3464 75.4062 29.1484 75.6172 28.9844C75.8281 28.8177 76.0781 28.7344 76.3672 28.7344ZM79.4453 33H78.6445L76.9766 28.8125H77.7148L78.6602 31.2812C78.707 31.3958 78.7552 31.5234 78.8047 31.6641C78.8542 31.8021 78.8984 31.9362 78.9375 32.0664C78.9792 32.1966 79.0078 32.3047 79.0234 32.3906H79.0586C79.0794 32.3047 79.1107 32.1966 79.1523 32.0664C79.1966 31.9336 79.2448 31.7982 79.2969 31.6602C79.349 31.5195 79.3971 31.3932 79.4414 31.2812L80.3828 28.8125H81.1172L79.4453 33ZM82.2852 27.2422C82.3971 27.2422 82.4961 27.2773 82.582 27.3477C82.6706 27.4154 82.7148 27.526 82.7148 27.6797C82.7148 27.8281 82.6706 27.9388 82.582 28.0117C82.4961 28.082 82.3971 28.1172 82.2852 28.1172C82.1602 28.1172 82.0547 28.082 81.9688 28.0117C81.8828 27.9388 81.8398 27.8281 81.8398 27.6797C81.8398 27.526 81.8828 27.4154 81.9688 27.3477C82.0547 27.2773 82.1602 27.2422 82.2852 27.2422ZM81.9297 28.8125H82.6172V33H81.9297V28.8125ZM86.0078 33.0781C85.599 33.0781 85.2357 33.0026 84.918 32.8516C84.6029 32.6979 84.3542 32.4635 84.1719 32.1484C83.9922 31.8307 83.9023 31.4245 83.9023 30.9297C83.9023 30.4141 83.9961 29.9948 84.1836 29.6719C84.3711 29.349 84.6263 29.112 84.9492 28.9609C85.2747 28.8099 85.6432 28.7344 86.0547 28.7344C86.2839 28.7344 86.5065 28.7565 86.7227 28.8008C86.9414 28.8451 87.1159 28.8984 87.2461 28.9609L87.0352 29.5312C86.9023 29.4844 86.7422 29.4401 86.5547 29.3984C86.3672 29.3568 86.194 29.3359 86.0352 29.3359C85.5534 29.3359 85.1966 29.4701 84.9648 29.7383C84.7331 30.0039 84.6172 30.3984 84.6172 30.9219C84.6172 31.4245 84.7318 31.8112 84.9609 32.082C85.1901 32.3503 85.5326 32.4844 85.9883 32.4844C86.2409 32.4844 86.4622 32.4609 86.6523 32.4141C86.8451 32.3646 87.0195 32.3073 87.1758 32.2422V32.8516C87.0247 32.9245 86.8568 32.9805 86.6719 33.0195C86.4896 33.0586 86.2682 33.0781 86.0078 33.0781ZM89.8398 28.7344C90.3711 28.7344 90.7891 28.9076 91.0938 29.2539C91.3984 29.5977 91.5508 30.0547 91.5508 30.625V31.0391H88.7148C88.7279 31.5104 88.8477 31.8711 89.0742 32.1211C89.3034 32.3685 89.6237 32.4922 90.0352 32.4922C90.2982 32.4922 90.5312 32.4674 90.7344 32.418C90.9401 32.3685 91.151 32.2969 91.3672 32.2031V32.8047C91.1536 32.8984 90.944 32.9674 90.7383 33.0117C90.5326 33.056 90.2878 33.0781 90.0039 33.0781C89.6107 33.0781 89.263 32.9974 88.9609 32.8359C88.6615 32.6719 88.4271 32.431 88.2578 32.1133C88.0885 31.7956 88.0039 31.4036 88.0039 30.9375C88.0039 30.4792 88.0807 30.0859 88.2344 29.7578C88.388 29.4271 88.6029 29.1745 88.8789 29C89.1549 28.8229 89.4753 28.7344 89.8398 28.7344ZM89.832 29.2969C89.5091 29.2969 89.2539 29.4023 89.0664 29.6133C88.8789 29.8242 88.7669 30.1172 88.7305 30.4922H90.8359C90.8333 30.1354 90.7513 29.8477 90.5898 29.6289C90.4284 29.4076 90.1758 29.2969 89.832 29.2969ZM95.6836 31.8438C95.6836 32.25 95.5169 32.5573 95.1836 32.7656C94.8529 32.974 94.4128 33.0781 93.8633 33.0781C93.5404 33.0781 93.2643 33.0547 93.0352 33.0078C92.8086 32.9635 92.6107 32.8984 92.4414 32.8125V32.1875C92.6107 32.2682 92.8242 32.3451 93.082 32.418C93.3424 32.4883 93.6107 32.5234 93.8867 32.5234C94.2826 32.5234 94.5703 32.4674 94.75 32.3555C94.9297 32.2435 95.0195 32.0938 95.0195 31.9062C95.0195 31.8021 94.987 31.7083 94.9219 31.625C94.8594 31.5417 94.7448 31.4583 94.5781 31.375C94.4141 31.2917 94.1797 31.1979 93.875 31.0938C93.5755 30.9896 93.3177 30.8854 93.1016 30.7812C92.8854 30.6771 92.7188 30.5521 92.6016 30.4062C92.487 30.2604 92.4297 30.0729 92.4297 29.8438C92.4297 29.487 92.5872 29.2135 92.9023 29.0234C93.2174 28.8307 93.6302 28.7344 94.1406 28.7344C94.4167 28.7344 94.6745 28.7604 94.9141 28.8125C95.1536 28.862 95.3776 28.9297 95.5859 29.0156L95.3438 29.5625C95.1536 29.487 94.9531 29.4245 94.7422 29.375C94.5339 29.3229 94.3138 29.2969 94.082 29.2969C93.7591 29.2969 93.5117 29.3424 93.3398 29.4336C93.1706 29.5247 93.0859 29.6484 93.0859 29.8047C93.0859 29.9219 93.1237 30.0208 93.1992 30.1016C93.2773 30.1823 93.4036 30.2604 93.5781 30.3359C93.7552 30.4115 93.9935 30.5 94.293 30.6016C94.5872 30.7005 94.8372 30.8034 95.043 30.9102C95.2513 31.0143 95.4102 31.1406 95.5195 31.2891C95.6289 31.4349 95.6836 31.6198 95.6836 31.8438Z" fill="#F5F5F5"/>
<circle cx="39.5" cy="30.5" r="0.5" fill="#D42A2A"/>
<circle cx="41.5" cy="30.5" r="0.5" fill="#D42A2A"/>
<rect x="2" y="30" width="36" height="1" rx="0.5" fill="#D42A2A"/>
</svg>
