<svg width="44" height="44" viewBox="0 0 44 44" fill="none" xmlns="http://www.w3.org/2000/svg">
<path d="M19.0024 7.62158C13.7882 8.59935 9.3326 12.4659 7.86782 17.9325C5.83323 25.5257 10.3394 33.3306 17.9326 35.3652C23.3994 36.83 28.9748 34.9035 32.4286 30.8765L34.2183 33.9762C29.9049 38.3659 23.4172 40.3714 17.0484 38.6649C7.63285 36.142 2.04524 26.464 4.56813 17.0484C6.2746 10.6798 11.2546 6.06255 17.2128 4.52183L19.0024 7.62158Z" fill="#D42A2A"/>
<path d="M26.1846 4.5681C35.6002 7.09099 41.1878 16.769 38.6649 26.1846C38.186 27.972 37.4472 29.6203 36.5033 31.1025L34.51 27.6501C34.8572 26.9057 35.1453 26.1213 35.3652 25.3004C36.2345 22.0562 35.9057 18.7751 34.6563 15.9202L13.8322 27.9439L12.2384 25.1833L33.0611 13.1603C31.2136 10.6565 28.5398 8.73575 25.3005 7.86779C24.4793 7.64777 23.6558 7.50367 22.8372 7.43226L20.844 3.97978C22.5998 3.90335 24.3969 4.08909 26.1846 4.5681Z" fill="#F5F5F5"/>
</svg>
